<svg xmlns="http://www.w3.org/2000/svg" viewBox="0 0 227.44 244.3"><title>angular-logo</title><polygon points="113.72 0 113.72 0 113.72 0 0 40.55 17.34 190.92 113.72 244.3 113.72 244.3 113.72 244.3 210.1 190.92 227.44 40.55 113.72 0" style="fill:#dd0031"/><polygon points="113.72 0 113.72 27.12 113.72 27 113.72 150.73 113.72 150.73 113.72 244.3 113.72 244.3 210.1 190.92 227.44 40.55 113.72 0" style="fill:#c3002f"/><path d="M123.72,30.25,52.63,189.66H79.14L93.43,154h60.34l14.29,35.67h26.51L123.72,30.25ZM144.49,132H103l20.76-50Z" transform="translate(-10 -3.25)" style="fill:#fff"/></svg>